<svg
    xmlns="http://www.w3.org/2000/svg"
    viewBox="0 0 24 24"
    id="vector">
    <path
        id="path"
        d="M 20.466 1.967 L 14.78 0.221 C 13.525 -0.161 12.17 -0.036 11.006 0.57 C 9.843 1.175 8.963 2.214 8.556 3.461 L 8.368 4 L 5 4 C 3.675 4.002 2.403 4.529 1.466 5.466 C 0.529 6.403 0.002 7.675 0 9 L 0 19 C 0.002 20.325 0.529 21.597 1.466 22.534 C 2.403 23.471 3.675 23.998 5 24 L 11 24 C 11.757 23.997 12.504 23.822 13.184 23.487 C 13.863 23.151 14.457 22.666 14.92 22.066 C 15.148 22.099 15.378 22.116 15.609 22.118 C 16.683 22.119 17.728 21.772 18.589 21.13 C 19.449 20.488 20.079 19.584 20.384 18.555 L 23.8 8.156 C 24.165 6.894 24.02 5.537 23.397 4.381 C 22.774 3.224 21.721 2.357 20.466 1.967 Z M 11 22 L 5 22 C 4.205 22 3.441 21.684 2.879 21.121 C 2.316 20.559 2 19.795 2 19 L 2 9 C 2 8.205 2.316 7.441 2.879 6.879 C 3.441 6.316 4.205 6 5 6 L 11 6 C 11.527 6 12.044 6.139 12.5 6.402 C 12.956 6.665 13.335 7.044 13.598 7.5 C 13.861 7.956 14 8.473 14 9 L 14 19 C 14 19.527 13.861 20.044 13.598 20.5 C 13.335 20.956 12.956 21.335 12.5 21.598 C 12.044 21.861 11.527 22 11 22 Z M 21.887 7.563 L 18.475 17.963 C 18.305 18.538 17.967 19.049 17.503 19.43 C 17.04 19.81 16.472 20.043 15.875 20.097 C 15.957 19.737 15.999 19.369 16 19 L 16 9 C 15.998 7.675 15.471 6.403 14.534 5.466 C 13.597 4.529 12.325 4.002 11 4 L 10.493 4 C 10.751 3.273 11.28 2.673 11.969 2.325 C 12.658 1.977 13.455 1.909 14.193 2.133 L 19.879 3.879 C 20.628 4.11 21.257 4.625 21.632 5.313 C 22.007 6.001 22.099 6.809 21.887 7.563 Z M 12 13 C 12 14.45 10.456 16.391 9.286 17.378 C 8.927 17.682 8.471 17.849 8 17.849 C 7.529 17.849 7.073 17.682 6.714 17.378 C 5.544 16.391 4 14.45 4 13 C 4 12.47 4.211 11.961 4.586 11.586 C 4.961 11.211 5.47 11 6 11 C 6.53 11 7.039 11.211 7.414 11.586 C 7.789 11.961 8 12.47 8 13 C 8 12.47 8.211 11.961 8.586 11.586 C 8.961 11.211 9.47 11 10 11 C 10.53 11 11.039 11.211 11.414 11.586 C 11.789 11.961 12 12.47 12 13 Z"
        fill="#000000"/>
</svg>
