<svg
    xmlns="http://www.w3.org/2000/svg"
    viewBox="0 0 24 24"
    id="vector">
    <path
        id="path"
        d="M 13.5 3 C 13.224 3 13 3.224 13 3.5 L 13 12 C 13 12.552 12.552 13 12 13 C 11.448 13 11 12.552 11 12 L 11 5.5 C 11 5.224 10.776 5 10.5 5 C 10.224 5 10 5.224 10 5.5 L 10 13.968 C 10 15.076 8.627 15.592 7.897 14.758 L 5.35 11.847 C 5.192 11.666 4.955 11.576 4.717 11.606 C 4.153 11.676 3.888 12.34 4.248 12.779 L 8.938 18.512 C 10.227 20.087 12.154 21 14.189 21 C 17.398 21 20 18.398 20 15.189 L 20 7.5 C 20 7.224 19.776 7 19.5 7 C 19.224 7 19 7.224 19 7.5 L 19 12 C 19 12.552 18.552 13 18 13 C 17.448 13 17 12.552 17 12 L 17 5.5 C 17 5.224 16.776 5 16.5 5 C 16.224 5 16 5.224 16 5.5 L 16 12 C 16 12.552 15.552 13 15 13 C 14.448 13 14 12.552 14 12 L 14 3.5 C 14 3.224 13.776 3 13.5 3 Z M 15.961 3.058 C 15.752 1.888 14.73 1 13.5 1 C 12.27 1 11.248 1.888 11.039 3.058 C 10.865 3.02 10.685 3 10.5 3 C 9.119 3 8 4.119 8 5.5 L 8 11.839 L 6.855 10.53 C 6.26 9.849 5.366 9.509 4.469 9.621 C 2.344 9.887 1.344 12.388 2.7 14.045 L 7.39 19.778 C 9.059 21.817 11.554 23 14.189 23 C 18.503 23 22 19.503 22 15.189 L 22 7.5 C 22 6.119 20.881 5 19.5 5 C 19.315 5 19.135 5.02 18.961 5.058 C 18.753 3.888 17.73 3 16.5 3 C 16.315 3 16.135 3.02 15.961 3.058 Z"
        fill="#0f0f0f"
        fill-rule="evenodd"/>
</svg>
