<svg
    xmlns="http://www.w3.org/2000/svg"
    viewBox="0 0 48 48"
    id="vector">
    <path
        id="path"
        d="M 4 35 L 16.2 35 C 16.65 34.997 17.087 34.85 17.448 34.58 C 17.808 34.31 18.071 33.931 18.2 33.5 C 18.276 33.086 18.232 32.658 18.073 32.268 C 17.913 31.878 17.645 31.542 17.3 31.3 C 15.363 30.147 13.761 28.505 12.656 26.54 C 11.551 24.575 10.98 22.354 11 20.1 C 11 16.654 12.371 13.345 14.808 10.908 C 17.245 8.471 20.554 7.1 24 7.1 C 27.446 7.1 30.755 8.471 33.192 10.908 C 35.629 13.345 37 16.654 37 20.1 C 37.02 22.354 36.449 24.575 35.344 26.54 C 34.239 28.505 32.637 30.147 30.7 31.3 C 30.355 31.542 30.087 31.878 29.927 32.268 C 29.768 32.658 29.724 33.086 29.8 33.5 C 29.929 33.931 30.192 34.31 30.552 34.58 C 30.913 34.85 31.35 34.997 31.8 35 L 44 35 C 44.53 35 45.039 34.789 45.414 34.414 C 45.789 34.039 46 33.53 46 33 C 46 32.47 45.789 31.961 45.414 31.586 C 45.039 31.211 44.53 31 44 31 L 37.1 31 C 39.855 27.669 41.238 23.41 40.966 19.097 C 40.695 14.783 38.788 10.731 35.637 7.772 C 32.486 4.814 28.322 3.165 24 3.165 C 19.678 3.165 15.514 4.814 12.363 7.772 C 9.212 10.731 7.305 14.783 7.034 19.097 C 6.762 23.41 8.145 27.669 10.9 31 L 4 31 C 3.47 31 2.961 31.211 2.586 31.586 C 2.211 31.961 2 32.47 2 33 C 2 33.53 2.211 34.039 2.586 34.414 C 2.961 34.789 3.47 35 4 35 Z"
        fill="#000000"/>
    <path
        id="path_1"
        d="M 44 39 L 4 39 C 3.47 39 2.961 39.211 2.586 39.586 C 2.211 39.961 2 40.47 2 41 C 2 41.53 2.211 42.039 2.586 42.414 C 2.961 42.789 3.47 43 4 43 L 44 43 C 44.53 43 45.039 42.789 45.414 42.414 C 45.789 42.039 46 41.53 46 41 C 46 40.47 45.789 39.961 45.414 39.586 C 45.039 39.211 44.53 39 44 39 Z"
        fill="#000000"/>
</svg>
